<?xml version="1.0" encoding="UTF-8"?>
<svg id="Layer_1" xmlns="http://www.w3.org/2000/svg" version="1.1" viewBox="0 0 200 200">
  <!-- Generator: Adobe Illustrator 30.2.1, SVG Export Plug-In . SVG Version: 2.1.1 Build 1)  -->
  <defs>
    <style>
      .st0 {
        fill: #fbf7f3;
      }

      .st1 {
        fill: #8b4512;
      }
    </style>
  </defs>
  <rect class="st0" x="26.29" y="26.29" width="147.43" height="147.43" rx="21.95" ry="21.95"/>
  <g>
    <path class="st1" d="M123.23,128.79c-5.18,0-11.54-1.03-19.35-3.58-.82-.27-1.38-1.04-1.38-1.9v-39.05c0-.64.31-1.24.83-1.62s1.19-.48,1.79-.28c9.66,3.15,26.93,6.87,34.1-3.62.49-.72,1.4-1.04,2.24-.78.84.26,1.41,1.03,1.41,1.91v39.05c0,.4-.12.8-.35,1.13-3.04,4.45-8.72,8.74-19.29,8.74ZM106.5,121.85c9.68,2.98,25.35,5.86,32.37-3.57v-33.31c-5.5,4.45-15.21,7.07-32.37,2.01v34.87Z"/>
    <path class="st1" d="M95.5,122.12c-.65,0-1.27-.32-1.65-.87-7.17-10.49-24.44-6.77-34.1-3.62-.61.2-1.28.09-1.79-.28-.52-.38-.83-.98-.83-1.62v-39.05c0-.87.56-1.63,1.38-1.9,23.73-7.74,34.11-1.47,38.64,5.16.23.33.35.73.35,1.13v39.05c0,.88-.57,1.65-1.41,1.91-.19.06-.39.09-.59.09ZM77.86,110.25c7.3,0,12.26,2.04,15.64,4.77v-33.31c-7.02-9.42-22.69-6.54-32.37-3.56v34.87c6.62-1.96,12.14-2.76,16.73-2.76Z"/>
  </g>
</svg>